<?xml version="1.0" standalone="no"?>
<!DOCTYPE svg PUBLIC "-//W3C//DTD SVG 1.1//EN" "http://www.w3.org/Graphics/SVG/1.1/DTD/svg11.dtd">
<svg version="1.1" xmlns="http://www.w3.org/2000/svg" viewBox="0 0 41.644255409005495 38.226744484716164" width="124.93276622701649" height="114.68023345414849"><!-- svg-source:excalidraw --><metadata></metadata><defs><style class="style-fonts">
      </style></defs><g stroke-linecap="round"><g transform="translate(10 28.112822565113277) rotate(0 10.822127704502748 -8.999450322755195)"><path d="M0 0 C3.07 -5.16, 6.13 -10.32, 10.77 -18.11 M0 0 C3.86 -6.49, 7.72 -12.98, 10.77 -18.11 M10.77 -18.11 C15.05 -10.94, 19.33 -3.76, 21.64 0.11 M10.77 -18.11 C13.89 -12.87, 17.02 -7.63, 21.64 0.11 M21.64 0.11 C17.19 0.09, 12.73 0.07, 0 0 M21.64 0.11 C15.86 0.08, 10.08 0.05, 0 0" stroke="#228be6" stroke-width="2" fill="none"></path></g></g><mask></mask><g stroke-linecap="round"><g transform="translate(20.765168374299066 10) rotate(0 -5.268667156339859 8.99945521154848)"><path d="M0 0 C0 0.05, 0 0.1, 0 0.17 M0 0 C0 0.04, 0 0.08, 0 0.17 M0 0.17 C0.01 2.81, 0.03 5.45, 0.06 11.9 M0 0.17 C0.01 3.21, 0.03 6.24, 0.06 11.9 M0.06 11.9 C-2.55 13.4, -5.17 14.89, -10.59 18 M0.06 11.9 C-2.75 13.51, -5.56 15.12, -10.59 18" stroke="#228be6" stroke-width="2" fill="none"></path></g></g><mask></mask></svg>
